<svg xmlns="http://www.w3.org/2000/svg" width="166.011" height="60" viewBox="0 0 166.011 60">
  <g id="Group_8" data-name="Group 8" transform="translate(-271.919 -590.951)">
    <path id="Path_1441" data-name="Path 1441" d="M280.342,640.409l-2.91,18.985h-5.513l9.456-57.3h7.792l9.854,57.3h-5.715l-3.111-18.985Zm9.125-5.013c-2.168-13.3-3.646-23.167-4.166-28.337h-.232c-.2,4.36-2.331,17.4-3.969,28.337Z" transform="translate(0 -8.457)" fill="#fff"/>
    <g id="Group_8-2" data-name="Group 8" transform="translate(341.826 591.319)">
      <path id="Path_1442" data-name="Path 1442" d="M567.526,687.15v1.858c0,4.5,1.865,6.7,5,6.7,3.466,0,4.828-2.189,4.828-6.377,0-4.455-1.327-6.447-6.119-9.628-5.683-3.765-8.3-6.749-8.3-12.63,0-6.087,2.851-10.768,9.73-10.768,7.443,0,9.567,4.9,9.567,10.982V669.3h-5.234v-2.289c0-3.789-1.065-6.051-4.411-6.051-3.025,0-4.273,2.085-4.273,5.63s1.084,5.1,5.448,8.036c5.989,3.966,9.035,6.919,9.035,13.969,0,7.636-3.346,11.768-10.517,11.768-8.07,0-10.181-5.446-10.181-11.273V687.15Z" transform="translate(-562.088 -640.927)" fill="#fff"/>
      <path id="Path_1443" data-name="Path 1443" d="M676.6,592.477v19.969c1.051-2.472,3.548-4.592,7.789-4.592,6.357,0,8.246,4.781,8.246,10.96v32.424h-5.354V620.144c0-3.66-.456-7.349-4.71-7.349-4.882,0-5.971,3.811-5.971,10.348v28.095h-5.353v-58.76Z" transform="translate(-644.948 -592.477)" fill="#fff"/>
      <path id="Path_1444" data-name="Path 1444" d="M793.751,679.312v7.157c0,4.476.867,9.239,5.313,9.239,4.21,0,5.036-3.358,5.036-7.691v-.386h5.264v.331c0,5.063-1.2,12.4-10.319,12.4-8.443,0-10.558-5.636-10.558-14.316v-16.37c0-6.628,2.367-13.371,10.692-13.371,8.024,0,10.3,6.1,10.3,13.4v9.612Zm10.523-4.445V669.3c0-3.988-.575-8.339-5.15-8.339-4.346,0-5.343,3.667-5.343,8.393v5.517Z" transform="translate(-733.944 -640.927)" fill="#fff"/>
      <path id="Path_1445" data-name="Path 1445" d="M902.067,671.871c0-6.839.03-10.9-.084-14.552h5.12c.084,1.193.2,3.609.2,6.615,1.551-5.139,5.208-7.071,8.9-7.18v6.618c-5.375.055-8.78,3.533-8.78,11v25.654h-5.354Z" transform="translate(-820.097 -641.269)" fill="#fff"/>
    </g>
    <g id="Group_9" data-name="Group 9" transform="translate(298.896 590.951)">
      <path id="Path_1446" data-name="Path 1446" d="M410.435,606.786a.178.178,0,0,0-.151.029.172.172,0,0,0-.07.137l-.442,25.71,4.7-24.205A12.539,12.539,0,0,0,410.435,606.786Z" transform="translate(-403.538 -602.966)" fill="#fff"/>
      <path id="Path_1447" data-name="Path 1447" d="M383.945,627.9a.168.168,0,0,0-.046.146l4.305,27.131.451-26.259a12.515,12.515,0,0,0-4.567-1.073A.175.175,0,0,0,383.945,627.9Z" transform="translate(-383.897 -618.953)" fill="#fff"/>
      <path id="Path_1448" data-name="Path 1448" d="M434.458,622.613c-3.638-3.192-8.9-5.12-13.693-3.784-1.588.443-3.055,1.459-4.622,1.842a13.027,13.027,0,0,1,.461-2.782q.317-1.546.632-3.091c.433-2.106.878-4.21,1.377-6.3.939-3.937,2.593-8.063,1.713-12.161a7.34,7.34,0,0,0-4.477-5.366.168.168,0,0,0-.153,0,.164.164,0,0,0-.094.12l-7.845,40.424a16.277,16.277,0,1,0,26.7-8.9Zm-10.664,23.3a11.135,11.135,0,1,1,11.135-11.135A11.135,11.135,0,0,1,423.794,645.909Z" transform="translate(-401.785 -590.951)" fill="#fff"/>
    </g>
  </g>
</svg>
